{
    "asset" : {
        "generator" : "Khronos glTF Blender I/O v3.3.27",
        "version" : "2.0"
    },
    "scene" : 0,
    "scenes" : [
        {
            "name" : "Scene",
            "nodes" : [
                1
            ]
        }
    ],
    "nodes" : [
        {
            "mesh" : 0,
            "name" : "Mesh.001"
        },
        {
            "children" : [
                0
            ],
            "name" : "Node_0",
            "rotation" : [
                -0.7071068286895752,
                0,
                0,
                0.7071067094802856
            ]
        }
    ],
    "materials" : [
        {
            "doubleSided" : true,
            "name" : "Material.001",
            "pbrMetallicRoughness" : {
                "baseColorFactor" : [
                    0.8000000715255737,
                    0.006017893087118864,
                    0.014944242313504219,
                    1
                ],
                "metallicFactor" : 0,
                "roughnessFactor" : 0.5
            }
        },
        {
            "doubleSided" : true,
            "name" : "Material.002",
            "pbrMetallicRoughness" : {
                "baseColorTexture" : {
                    "index" : 0
                },
                "metallicFactor" : 0,
                "roughnessFactor" : 0.5
            }
        },
        {
            "doubleSided" : true,
            "name" : "Material.003",
            "pbrMetallicRoughness" : {
                "baseColorTexture" : {
                    "index" : 1
                },
                "metallicFactor" : 0,
                "roughnessFactor" : 0.5
            }
        },
        {
            "doubleSided" : true,
            "name" : "Material.004",
            "pbrMetallicRoughness" : {
                "baseColorTexture" : {
                    "index" : 2
                },
                "metallicFactor" : 0,
                "roughnessFactor" : 0.5
            }
        },
        {
            "doubleSided" : true,
            "name" : "Material.005",
            "pbrMetallicRoughness" : {
                "baseColorTexture" : {
                    "index" : 3
                },
                "metallicFactor" : 0,
                "roughnessFactor" : 0.5
            }
        }
    ],
    "meshes" : [
        {
            "name" : "Mesh.001",
            "primitives" : [
                {
                    "attributes" : {
                        "POSITION" : 0,
                        "NORMAL" : 1,
                        "TEXCOORD_0" : 2
                    },
                    "indices" : 3,
                    "material" : 0
                },
                {
                    "attributes" : {
                        "POSITION" : 4,
                        "NORMAL" : 5,
                        "TEXCOORD_0" : 6
                    },
                    "indices" : 7,
                    "material" : 1
                },
                {
                    "attributes" : {
                        "POSITION" : 8,
                        "NORMAL" : 9,
                        "TEXCOORD_0" : 10
                    },
                    "indices" : 11,
                    "material" : 2
                },
                {
                    "attributes" : {
                        "POSITION" : 12,
                        "NORMAL" : 13,
                        "TEXCOORD_0" : 14
                    },
                    "indices" : 11,
                    "material" : 3
                },
                {
                    "attributes" : {
                        "POSITION" : 15,
                        "NORMAL" : 16,
                        "TEXCOORD_0" : 17
                    },
                    "indices" : 7,
                    "material" : 4
                }
            ]
        }
    ],
    "textures" : [
        {
            "sampler" : 0,
            "source" : 0
        },
        {
            "sampler" : 0,
            "source" : 1
        },
        {
            "sampler" : 0,
            "source" : 2
        },
        {
            "sampler" : 0,
            "source" : 3
        }
    ],
    "images" : [
        {
            "mimeType" : "image/png",
            "name" : "BoomBox_baseColor",
            "uri" : "BoomBox_baseColor.png"
        },
        {
            "mimeType" : "image/png",
            "name" : "BoomBox_baseColor2",
            "uri" : "BoomBox_baseColor2.png"
        },
        {
            "mimeType" : "image/png",
            "name" : "BoomBox_baseColor3",
            "uri" : "BoomBox_baseColor3.png"
        },
        {
            "mimeType" : "image/png",
            "name" : "BoomBox_baseColor4",
            "uri" : "BoomBox_baseColor4.png"
        }
    ],
    "accessors" : [
        {
            "bufferView" : 0,
            "componentType" : 5126,
            "count" : 18,
            "max" : [
                0.5,
                0.5,
                0.5
            ],
            "min" : [
                -0.5,
                -0.5,
                -0.5
            ],
            "type" : "VEC3"
        },
        {
            "bufferView" : 1,
            "componentType" : 5126,
            "count" : 18,
            "type" : "VEC3"
        },
        {
            "bufferView" : 2,
            "componentType" : 5126,
            "count" : 18,
            "type" : "VEC2"
        },
        {
            "bufferView" : 3,
            "componentType" : 5123,
            "count" : 24,
            "type" : "SCALAR"
        },
        {
            "bufferView" : 4,
            "componentType" : 5126,
            "count" : 3,
            "max" : [
                0.5,
                0.5,
                0.5
            ],
            "min" : [
                -0.5,
                -0.5,
                0.5
            ],
            "type" : "VEC3"
        },
        {
            "bufferView" : 5,
            "componentType" : 5126,
            "count" : 3,
            "type" : "VEC3"
        },
        {
            "bufferView" : 6,
            "componentType" : 5126,
            "count" : 3,
            "type" : "VEC2"
        },
        {
            "bufferView" : 7,
            "componentType" : 5123,
            "count" : 3,
            "type" : "SCALAR"
        },
        {
            "bufferView" : 8,
            "componentType" : 5126,
            "count" : 3,
            "max" : [
                0.5,
                0.5,
                0.5
            ],
            "min" : [
                0.5,
                -0.5,
                -0.5
            ],
            "type" : "VEC3"
        },
        {
            "bufferView" : 9,
            "componentType" : 5126,
            "count" : 3,
            "type" : "VEC3"
        },
        {
            "bufferView" : 10,
            "componentType" : 5126,
            "count" : 3,
            "type" : "VEC2"
        },
        {
            "bufferView" : 11,
            "componentType" : 5123,
            "count" : 3,
            "type" : "SCALAR"
        },
        {
            "bufferView" : 12,
            "componentType" : 5126,
            "count" : 3,
            "max" : [
                0.5,
                -0.5,
                0.5
            ],
            "min" : [
                -0.5,
                -0.5,
                -0.5
            ],
            "type" : "VEC3"
        },
        {
            "bufferView" : 13,
            "componentType" : 5126,
            "count" : 3,
            "type" : "VEC3"
        },
        {
            "bufferView" : 14,
            "componentType" : 5126,
            "count" : 3,
            "type" : "VEC2"
        },
        {
            "bufferView" : 15,
            "componentType" : 5126,
            "count" : 3,
            "max" : [
                0.5,
                -0.5,
                0.5
            ],
            "min" : [
                -0.5,
                -0.5,
                -0.5
            ],
            "type" : "VEC3"
        },
        {
            "bufferView" : 16,
            "componentType" : 5126,
            "count" : 3,
            "type" : "VEC3"
        },
        {
            "bufferView" : 17,
            "componentType" : 5126,
            "count" : 3,
            "type" : "VEC2"
        }
    ],
    "bufferViews" : [
        {
            "buffer" : 0,
            "byteLength" : 216,
            "byteOffset" : 0,
            "target" : 34962
        },
        {
            "buffer" : 0,
            "byteLength" : 216,
            "byteOffset" : 216,
            "target" : 34962
        },
        {
            "buffer" : 0,
            "byteLength" : 144,
            "byteOffset" : 432,
            "target" : 34962
        },
        {
            "buffer" : 0,
            "byteLength" : 48,
            "byteOffset" : 576,
            "target" : 34963
        },
        {
            "buffer" : 0,
            "byteLength" : 36,
            "byteOffset" : 624,
            "target" : 34962
        },
        {
            "buffer" : 0,
            "byteLength" : 36,
            "byteOffset" : 660,
            "target" : 34962
        },
        {
            "buffer" : 0,
            "byteLength" : 24,
            "byteOffset" : 696,
            "target" : 34962
        },
        {
            "buffer" : 0,
            "byteLength" : 6,
            "byteOffset" : 720,
            "target" : 34963
        },
        {
            "buffer" : 0,
            "byteLength" : 36,
            "byteOffset" : 728,
            "target" : 34962
        },
        {
            "buffer" : 0,
            "byteLength" : 36,
            "byteOffset" : 764,
            "target" : 34962
        },
        {
            "buffer" : 0,
            "byteLength" : 24,
            "byteOffset" : 800,
            "target" : 34962
        },
        {
            "buffer" : 0,
            "byteLength" : 6,
            "byteOffset" : 824,
            "target" : 34963
        },
        {
            "buffer" : 0,
            "byteLength" : 36,
            "byteOffset" : 832,
            "target" : 34962
        },
        {
            "buffer" : 0,
            "byteLength" : 36,
            "byteOffset" : 868,
            "target" : 34962
        },
        {
            "buffer" : 0,
            "byteLength" : 24,
            "byteOffset" : 904,
            "target" : 34962
        },
        {
            "buffer" : 0,
            "byteLength" : 36,
            "byteOffset" : 928,
            "target" : 34962
        },
        {
            "buffer" : 0,
            "byteLength" : 36,
            "byteOffset" : 964,
            "target" : 34962
        },
        {
            "buffer" : 0,
            "byteLength" : 24,
            "byteOffset" : 1000,
            "target" : 34962
        }
    ],
    "samplers" : [
        {
            "magFilter" : 9729,
            "minFilter" : 9987
        }
    ],
    "buffers" : [
        {
            "byteLength" : 1024,
            "uri" : "BoxTextured.bin"
        }
    ]
}
